<svg width="28" height="22" fill="none" xmlns="http://www.w3.org/2000/svg"><path d="M23.357 2.207A22.317 22.317 0 0 0 17.861.501a.084.084 0 0 0-.088.042c-.238.422-.5.974-.685 1.406a20.57 20.57 0 0 0-6.173 0c-.205-.481-.437-.95-.695-1.406a.086.086 0 0 0-.088-.042 22.197 22.197 0 0 0-5.496 1.706.07.07 0 0 0-.035.03C1.1 7.468.14 12.569.61 17.606a.095.095 0 0 0 .036.063 22.406 22.406 0 0 0 6.742 3.409.084.084 0 0 0 .094-.033c.52-.708.982-1.456 1.38-2.242a.085.085 0 0 0-.016-.1.085.085 0 0 0-.03-.018A14.98 14.98 0 0 1 6.71 17.68a.086.086 0 0 1-.008-.144c.142-.106.283-.217.418-.329a.083.083 0 0 1 .086-.012c4.42 2.019 9.204 2.019 13.57 0a.086.086 0 0 1 .089.012c.135.112.277.223.418.33a.086.086 0 0 1-.006.143c-.674.392-1.379.727-2.108 1.002a.087.087 0 0 0-.046.12c.405.784.87 1.534 1.379 2.242a.084.084 0 0 0 .095.033 22.335 22.335 0 0 0 6.751-3.41.084.084 0 0 0 .036-.062c.563-5.823-.944-10.882-3.993-15.366a.058.058 0 0 0-.034-.032ZM9.523 14.537c-1.331 0-2.426-1.221-2.426-2.72 0-1.5 1.075-2.722 2.426-2.722 1.362 0 2.447 1.232 2.427 2.722 0 1.499-1.075 2.72-2.427 2.72Zm8.97 0c-1.329 0-2.426-1.221-2.426-2.72 0-1.5 1.075-2.722 2.427-2.722 1.362 0 2.448 1.232 2.427 2.722 0 1.499-1.065 2.72-2.427 2.72Z" fill="#3F4246"></path></svg>