<svg width="28" height="28" fill="none" xmlns="http://www.w3.org/2000/svg"><path d="M14.001.5c-3.666 0-4.126.016-5.566.082-1.437.065-2.419.293-3.277.627a6.61 6.61 0 0 0-2.391 1.556 6.627 6.627 0 0 0-1.559 2.392c-.334.858-.562 1.84-.627 3.276C.517 9.873.5 10.333.5 14c0 3.667.016 4.125.082 5.565.066 1.438.293 2.418.627 3.277a6.615 6.615 0 0 0 1.557 2.391 6.61 6.61 0 0 0 2.39 1.558c.86.334 1.84.562 3.278.628 1.44.065 1.9.081 5.566.081s4.125-.016 5.565-.081c1.437-.066 2.42-.294 3.278-.628a6.606 6.606 0 0 0 2.39-1.558 6.628 6.628 0 0 0 1.558-2.39c.332-.86.56-1.84.627-3.277.065-1.44.082-1.9.082-5.566s-.017-4.126-.082-5.566c-.067-1.438-.295-2.419-.627-3.277a6.626 6.626 0 0 0-1.558-2.392 6.598 6.598 0 0 0-2.39-1.556C21.982.875 21 .647 19.563.582 18.123.516 17.665.5 13.997.5h.004Zm-1.21 2.433H14c3.605 0 4.032.013 5.455.077 1.317.06 2.031.28 2.507.465.63.245 1.08.538 1.551 1.01.473.473.765.923 1.01 1.553.185.475.406 1.19.465 2.506.065 1.423.08 1.85.08 5.453s-.015 4.03-.08 5.454c-.06 1.316-.28 2.03-.464 2.505a4.174 4.174 0 0 1-1.01 1.551 4.175 4.175 0 0 1-1.552 1.01c-.475.186-1.19.405-2.507.465-1.423.065-1.85.079-5.455.079s-4.032-.014-5.455-.079c-1.316-.06-2.03-.28-2.507-.465a4.18 4.18 0 0 1-1.552-1.01 4.184 4.184 0 0 1-1.01-1.552c-.185-.475-.405-1.19-.465-2.506-.065-1.423-.078-1.85-.078-5.455s.013-4.03.078-5.454c.06-1.316.28-2.03.465-2.506.244-.63.537-1.08 1.01-1.553a4.19 4.19 0 0 1 1.552-1.01c.476-.186 1.19-.405 2.507-.466 1.245-.056 1.728-.073 4.244-.076v.004Zm8.416 2.241a1.62 1.62 0 1 0 0 3.241 1.62 1.62 0 0 0 0-3.241Zm-7.206 1.893a6.933 6.933 0 1 0 .001 13.867 6.933 6.933 0 0 0-.001-13.867Zm0 2.433a4.5 4.5 0 1 1 0 9 4.5 4.5 0 0 1 0-9Z" fill="#3F4246"></path></svg>