<svg width="27" height="20" fill="none" xmlns="http://www.w3.org/2000/svg"><path d="M.408 9.303c2.762-1.36 5.845-2.497 8.726-3.638 4.957-1.87 9.933-3.707 14.959-5.418.977-.291 2.735-.576 2.907.72-.094 1.835-.482 3.659-.749 5.483-.675 4.01-1.456 8.008-2.218 12.006-.262 1.332-2.127 2.021-3.32 1.169-2.869-1.733-5.759-3.449-8.59-5.222-.928-.843-.068-2.053.76-2.655 2.363-2.082 4.868-3.851 7.107-6.041.604-1.304-1.18-.205-1.77.132-3.233 1.993-6.388 4.108-9.798 5.86-1.741.857-3.771.124-5.512-.354-1.561-.578-3.848-1.16-2.502-2.042Z" fill="#3F4246"></path></svg>