<svg width="28" height="28" fill="none" xmlns="http://www.w3.org/2000/svg"><path fill-rule="evenodd" clip-rule="evenodd" d="M26.25 14c0-6.765-5.485-12.25-12.25-12.25S1.75 7.235 1.75 14 7.235 26.25 14 26.25 26.25 20.765 26.25 14ZM0 14C0 6.268 6.268 0 14 0s14 6.268 14 14-6.268 14-14 14S0 21.732 0 14Zm13.125-6.125a.875.875 0 0 1 1.75 0v10.138l3.756-3.757a.875.875 0 1 1 1.238 1.238l-5.25 5.25a.875.875 0 0 1-1.238 0l-5.25-5.25a.875.875 0 1 1 1.238-1.238l3.756 3.757V7.875Z" fill="#676767" opacity="0.3"></path></svg>