<svg width="29" height="29" fill="none" xmlns="http://www.w3.org/2000/svg"><path d="m22.697 2.318-5.683 8.437a.605.605 0 0 0 .897.793L23.505 6.7a.227.227 0 0 1 .377.172v15.19a.226.226 0 0 1-.4.146L6.573 1.963A2.898 2.898 0 0 0 4.363.937H3.77A2.896 2.896 0 0 0 .875 3.834v21.395a2.896 2.896 0 0 0 5.366 1.516l5.683-8.438a.605.605 0 0 0-.897-.793l-5.594 4.849a.227.227 0 0 1-.378-.172V7a.227.227 0 0 1 .4-.145L22.363 27.1a2.898 2.898 0 0 0 2.212 1.025h.591a2.896 2.896 0 0 0 2.896-2.896V3.834a2.896 2.896 0 0 0-5.365-1.516Z" fill="#000"></path></svg>