<svg
            width="21"
            height="14"
            fill="none"
            xmlns="http://www.w3.org/2000/svg"
          >
            <path
              fill-rule="evenodd"
              clip-rule="evenodd"
              d="M0 0v14h21V0H0Z"
              fill="#227FBB"
            ></path>
            <path
              d="M2.366 0 21 12.423V14h-2.366L0 1.577V0h2.366Z"
              fill="#fff"
            ></path>
            <path
              d="M2.366 14 21 1.577V0h-2.366L0 12.423V14h2.366Z"
              fill="#fff"
            ></path>
            <path
              d="M0 0v1.052L8.923 7H10.5L0 0ZM10.5 7V5.948L19.423 0H21L10.5 7ZM21 14v-1.052L12.077 7H10.5L21 14ZM0 14l10.5-7v1.052L1.577 14H0Z"
              fill="#E94B35"
            ></path>
            <path
              fill-rule="evenodd"
              clip-rule="evenodd"
              d="M12.688 0H8.311v4.813H0v4.375h8.313V14h4.374V9.187H21V4.814h-8.313V0Z"
              fill="#fff"
            ></path>
            <path
              fill-rule="evenodd"
              clip-rule="evenodd"
              d="M11.813 0H9.187v5.688H0v2.625h9.188V14h2.624V8.312H21V5.688h-9.188V0Z"
              fill="#E94B35"
            ></path>
          </svg>